<svg width="1864" height="1791" xmlns="http://www.w3.org/2000/svg" xmlns:xlink="http://www.w3.org/1999/xlink" xml:space="preserve" overflow="hidden"><g transform="translate(-921 -214)"><path d="M1715.5 1112.5 1880.5 947.5 1880.5 1030 1996.5 1030 1996.5 947.5 2161.5 1112.5 1996.5 1277.5 1996.5 1195 1880.5 1195 1880.5 1277.5Z" stroke="#393939" stroke-width="1.14583" stroke-miterlimit="8" fill="none" fill-rule="evenodd"/><path d="M1251.5 646.5 1416.5 481.5 1581.5 646.5 1499 646.5 1499 811.5 1581.5 811.5 1416.5 976.5 1251.5 811.5 1334 811.5 1334 646.5Z" stroke="#393939" stroke-width="1.14583" stroke-miterlimit="8" fill="none" fill-rule="evenodd"/><path d="M1251.5 1406.5 1416.5 1241.5 1581.5 1406.5 1499 1406.5 1499 1571.5 1581.5 1571.5 1416.5 1736.5 1251.5 1571.5 1334 1571.5 1334 1406.5Z" stroke="#393939" stroke-width="1.14583" stroke-miterlimit="8" fill="none" fill-rule="evenodd"/><text fill="#393939" font-family="Segoe UI Light,Segoe UI Light_MSFontService,sans-serif" font-weight="300" font-size="110" transform="matrix(1 0 0 1 1214.15 1148)">Me</text><text fill="#393939" font-family="Segoe UI Light,Segoe UI Light_MSFontService,sans-serif" font-weight="300" font-size="110" transform="matrix(1 0 0 1 1361.39 1148)">aning</text><text fill="#393939" font-family="Segoe UI Light,Segoe UI Light_MSFontService,sans-serif" font-weight="300" font-size="73" transform="matrix(1 0 0 1 1277.63 308)">Approval</text><text fill="#393939" font-family="Segoe UI Light,Segoe UI Light_MSFontService,sans-serif" font-style="italic" font-weight="700" font-size="64" transform="matrix(1 0 0 1 1082.38 387)">evaluated for defensibility</text><text fill="#393939" font-family="Segoe UI Light,Segoe UI Light_MSFontService,sans-serif" font-weight="300" font-size="73" transform="matrix(1 0 0 1 1269.22 1872)">Execution</text><text fill="#393939" font-family="Segoe UI Light,Segoe UI Light_MSFontService,sans-serif" font-style="italic" font-weight="700" font-size="64" transform="matrix(1 0 0 1 1071.77 1951)">interpreted through action</text><text fill="#393939" font-family="Segoe UI Light,Segoe UI Light_MSFontService,sans-serif" font-weight="300" font-size="73" transform="matrix(1 0 0 1 2252.27 1064)">Alignment</text><text fill="#393939" font-family="Segoe UI Light,Segoe UI Light_MSFontService,sans-serif" font-style="italic" font-weight="700" font-size="64" transform="matrix(1 0 0 1 2252.27 1143)">reshaped through </text><text fill="#393939" font-family="Segoe UI Light,Segoe UI Light_MSFontService,sans-serif" font-style="italic" font-weight="700" font-size="64" transform="matrix(1 0 0 1 2252.27 1220)">negotiation</text></g></svg>